HIERARCHY
ROOT Hips
{
	OFFSET 0.00000 0.00000 0.00000
	CHANNELS 6 Xposition Yposition Zposition Yrotation Zrotation Xrotation 
	JOINT Lumbar
	{
		OFFSET 0 0 0
		CHANNELS 3 Zrotation Xrotation Yrotation
		JOINT Neck
		{
			OFFSET 0.00 0.2701 0.00
			CHANNELS 3 Zrotation Xrotation Yrotation
			End Site
			{
				OFFSET 0.00 0.1379 0.00
			}
		}
		JOINT RightShoulder
		{
			OFFSET 0.0119 0.2289 0.1181
			CHANNELS 3 Zrotation Xrotation Yrotation
			JOINT RightElbow
			{
				OFFSET 0.00 -0.1475 0.00
				CHANNELS 2 Zrotation Yrotation
				JOINT RightWrist
				{
					OFFSET 0.00 -0.1605 0.00
					CHANNELS 2 Zrotation Xrotation
					End Site
					{
						OFFSET 0.0040 -0.1068 0.0006
					}
				}
			}
		}
		JOINT LeftShoulder
		{
			OFFSET 0.0119 0.2289 -0.1181
			CHANNELS 3 Zrotation Xrotation Yrotation
			JOINT LeftElbow
			{
				OFFSET 0.00 -0.1475 0.00
				CHANNELS 2 Zrotation Yrotation
				JOINT LeftWrist
				{
					OFFSET 0.00 -0.1605 0.00
					CHANNELS 2 Zrotation Xrotation
					End Site
					{
						OFFSET 0.0040 -0.1068 -0.0006
					}
				}
			}
		}
	}
	JOINT RightHip
	{
		OFFSET 0.0316 -0.0424 0.0458
		CHANNELS 3 Zrotation Xrotation Yrotation
		JOINT RightKnee
		{
			OFFSET 0.00 -0.2438 0.00
			CHANNELS 1 Zrotation
			JOINT RightAnkle
			{
				OFFSET 0.00 -0.2449 0.00
				CHANNELS 3 Zrotation Xrotation Yrotation
				End Site
				{
					OFFSET 0.1237 -0.0542 0.0051
				}
			}
		}
	}
	JOINT LeftHip
	{
		OFFSET 0.0316 -0.0424 -0.0458
		CHANNELS 3 Zrotation Xrotation Yrotation
		JOINT LeftKnee
		{
			OFFSET 0.00 -0.2438 0.00
			CHANNELS 1 Zrotation
			JOINT LeftAnkle
			{
				OFFSET 0.00 -0.2449 0.00
				CHANNELS 3 Zrotation Xrotation Yrotation
				End Site
				{
					OFFSET 0.1237 -0.0542 -0.0051
				}
			}
		}
	}
}
MOTION
Frames: 19
Frame Time: 0.02
1.09086 -0.0228 -0.14531 1245.0332 -28.93734 6.134 45.87697 2.03426 6.81516 -14.67765 -3.10204 -0.83079 -28.65987 -3.85615 -24.35932 50.68905 64.08582 -19.49897 -0.09452 6.38726 12.97205 57.30606 121.42031 -58.49533 -20.54139 -0.90781 31.0304 -0.59892 -9.37749 -52.71864 -8.50597 -4.13786 -2.94148 48.47223 -4.87153 38.89978 -0.93646 -22.5151 -24.6697 -13.02122
1.07603 -0.02315 -0.14787 1245.17341 -28.57767 6.69526 45.96591 1.82947 6.71647 -14.89103 -3.1305 -0.83079 -30.36211 -3.86395 -22.97043 50.6087 63.06128 -19.66335 0.09063 6.19096 12.39701 57.47852 121.4283 -58.74376 -20.46588 -0.8844 31.51221 -1.57962 -8.22133 -55.31286 -9.75477 -3.91147 -2.86937 48.24645 -5.04489 35.54976 -4.61031 -20.19875 -20.28482 -10.58356
1.062 -0.02351 -0.15002 1245.11552 -28.03913 7.12076 45.77892 1.70438 6.5995 -15.08774 -3.09264 -0.83079 -32.15562 -3.93802 -21.45991 50.45756 61.89968 -19.81673 0.30443 6.14965 11.96267 57.50832 121.44359 -58.92819 -20.44808 -0.86305 32.30959 -2.65103 -7.16643 -58.29306 -11.2275 -3.59662 -2.75512 48.25549 -4.93138 31.17283 -9.31617 -17.28287 -14.34529 -7.30072
1.0477 -0.02387 -0.1524 1245.13239 -27.56679 7.58069 45.69034 1.55453 6.46657 -15.28909 -3.07547 -0.83079 -33.84705 -3.9441 -20.13464 50.30273 60.75753 -20.00179 0.50815 6.04243 11.48607 57.59607 121.44688 -59.12938 -20.39764 -0.8442 32.98718 -3.64826 -6.0886 -61.08669 -12.55026 -3.34127 -2.6692 48.10175 -4.93485 27.37883 -13.4693 -14.71463 -9.28612 -4.49784
1.03293 -0.0242 -0.15461 1245.21588 -27.15272 8.16088 45.71835 1.35335 6.4323 -15.50595 -3.09946 -0.83079 -35.81013 -4.10168 -18.26661 50.29621 59.78078 -20.08349 0.70057 5.91296 10.90942 57.71132 121.48433 -59.39269 -20.37182 -0.80963 33.56494 -4.78794 -4.89695 -63.94891 -14.08136 -3.00567 -2.54562 48.16514 -5.00274 23.07559 -17.98638 -11.82391 -3.47498 -1.27866
1.01936 -0.0246 -0.15708 1245.11676 -26.58101 8.45493 45.44082 1.2779 6.18586 -15.68554 -3.02027 -0.83079 -37.22464 -3.96572 -17.49075 49.96795 58.44131 -20.36727 0.92279 5.86929 10.57845 57.73397 121.45384 -59.5194 -20.30614 -0.80672 34.42715 -5.64947 -3.97652 -66.73489 -15.22989 -2.81491 -2.48953 47.84421 -4.86435 19.58941 -21.98468 -9.46356 1.13681 1.27231
1.0089 -0.0253 -0.16031 1244.5116 -25.5669 8.00996 44.33925 1.54519 5.40585 -15.76401 -2.68712 -0.83079 -37.08133 -2.96544 -19.84851 48.73338 56.03094 -21.29922 1.22117 6.00754 10.88423 57.56027 121.22731 -59.13336 -20.15817 -0.91645 35.97617 -5.74159 -3.73145 -69.41607 -15.2667 -3.05611 -2.63659 46.34713 -4.23889 18.69441 -24.3199 -8.7258 1.99813 1.73849
0.99963 -0.02607 -0.16384 1243.73768 -24.41008 7.27824 42.94758 1.93375 4.40608 -15.80555 -2.24976 -0.83079 -36.38426 -1.67543 -23.29259 47.18374 53.28104 -22.4189 1.54797 6.23059 11.4348 57.29389 120.93366 -58.63359 -19.96249 -1.05415 37.80222 -5.5465 -3.76527 -71.9649 -14.9104 -3.44403 -2.8517 44.46806 -3.41318 18.64429 -26.09213 -8.54134 1.60622 1.50701
0.98982 -0.02677 -0.16729 1243.07325 -23.35183 6.66508 41.71917 2.25791 3.47556 -15.86497 -1.85035 -0.83079 -35.95164 -0.54305 -26.1831 45.80177 50.75391 -23.39444 1.86139 6.42572 11.87927 57.05499 120.67539 -58.28584 -19.76036 -1.16207 39.518 -5.46912 -3.70683 -74.4486 -14.73349 -3.75811 -3.03143 42.80339 -2.66919 18.15741 -28.10653 -8.09684 1.82308 1.61445
0.98 -0.02766 -0.17049 1242.26444 -22.14432 6.09534 40.34883 2.62524 2.66979 -15.91906 -1.48799 -0.83079 -35.46805 0.6978 -29.32588 44.31509 47.92981 -24.61592 2.17889 6.57975 12.30707 56.8745 120.39681 -57.52627 -19.67342 -1.34008 41.18761 -5.44934 -3.51171 -77.49364 -14.56053 -4.09987 -3.22872 40.97382 -1.9516 17.861 -30.21487 -7.66711 1.92945 1.65961
0.97049 -0.02816 -0.17429 1241.71774 -21.21696 5.37076 39.2085 2.92884 1.55695 -15.97595 -1.02502 -0.83079 -34.95848 1.78099 -32.19812 42.9712 45.64924 -25.37246 2.49289 6.83956 12.82557 56.55015 120.14442 -57.5812 -19.34139 -1.38122 43.00404 -5.2398 -3.65921 -79.3093 -14.2841 -4.41933 -3.40586 39.39469 -1.13883 17.37715 -31.98039 -7.3464 1.94743 1.6574
0.96154 -0.02752 -0.17967 1241.94665 -21.09196 4.2729 38.77816 3.04013 -0.38959 -16.04745 -0.30657 -0.83079 -34.50729 2.36872 -34.09324 42.11182 44.92612 -24.77573 2.8007 7.35212 13.53632 55.86987 119.98171 -60.0596 -18.28462 -1.01592 45.24994 -4.57942 -4.74008 -77.96502 -13.80706 -4.65111 -3.51573 38.59351 -0.08075 16.22126 -32.93067 -7.19038 2.02313 1.69271
0.95285 -0.02649 -0.18565 1242.4443 -21.25572 3.03303 38.59016 3.08022 -2.62963 -16.12361 0.50821 -0.83079 -34.05052 2.78521 -35.66911 41.40538 44.77071 -23.7085 3.10124 7.97043 14.32809 55.04556 119.84757 -63.33521 -16.99341 -0.51583 47.61457 -3.73724 -6.14184 -75.35045 -13.2399 -4.85674 -3.6039 38.05719 1.05978 14.84641 -33.55121 -7.12833 2.04558 1.70026
0.94405 -0.02568 -0.19135 1242.81285 -21.29244 1.86891 38.28974 3.14374 -4.70982 -16.19905 1.27701 -0.83079 -33.59804 3.27451 -37.37268 40.62008 44.36924 -22.87281 3.39894 8.55237 15.08203 54.2753 119.69958 -66.14904 -15.84879 -0.09174 49.86394 -2.97564 -7.36419 -73.18 -12.72076 -5.06488 -3.69679 37.40379 2.13941 13.53859 -34.32181 -7.0268 2.08839 1.71815
0.93528 -0.02471 -0.19707 1243.20435 -21.30706 0.64622 37.98781 3.24917 -6.91127 -16.26699 2.06048 -0.83079 -33.11488 3.79873 -39.20159 39.86137 43.89171 -21.97112 3.72626 9.09001 15.85222 53.54858 119.5525 -69.37593 -14.53476 0.39321 52.38498 -2.21168 -8.75224 -71.55861 -12.16028 -5.30641 -3.80691 36.72555 3.32157 12.38301 -35.07309 -6.9301 2.10699 1.72311
0.92648 -0.02398 -0.20289 1243.61466 -21.43729 -0.483 37.7515 3.24887 -8.92467 -16.35251 2.83279 -0.83079 -32.70655 4.20117 -40.66179 39.09004 43.72907 -21.08986 3.98643 9.74139 16.60038 52.69982 119.41171 -71.937 -13.51689 0.7843 54.36095 -1.41446 -9.85 -68.50469 -11.667 -5.48442 -3.88369 36.16412 4.31158 10.86462 -35.79285 -6.8391 2.17658 1.7558
0.91764 -0.02402 -0.2088 1244.00775 -21.82484 -1.33069 37.63015 2.97284 -10.36547 -16.48243 3.56833 -0.83079 -32.46328 4.34938 -41.33951 38.22674 44.1421 -20.40592 4.09323 10.7016 17.30193 51.53673 119.27735 -72.43254 -13.38889 0.8787 54.83219 -0.55968 -10.22644 -61.71651 -11.40493 -5.36337 -3.79483 35.88558 4.70933 8.24261 -36.51229 -6.73489 2.42931 1.88793
0.90873 -0.02431 -0.21479 1244.4121 -22.31785 -2.07615 37.56972 2.59263 -11.60217 -16.6306 4.28565 -0.83079 -32.30469 4.37358 -41.63043 37.34968 44.87617 -19.75466 4.12812 11.7681 17.9705 50.25916 119.14957 -72.23678 -13.56467 0.87495 54.74367 0.31938 -10.27477 -53.553 -11.21098 -5.19695 -3.68389 35.71244 4.91648 5.2839 -37.21273 -6.63192 2.73634 2.04963
0.89977 -0.0245 -0.22075 1244.81434 -22.75762 -2.85916 37.48684 2.26002 -12.91926 -16.77262 4.99905 -0.83079 -32.14035 4.42478 -41.97935 36.49478 45.57537 -19.06849 4.17439 12.77224 18.63111 49.0421 119.0215 -72.37939 -13.59172 0.91931 54.89088 1.17864 -10.35997 -46.0718 -10.97251 -5.14341 -3.63911 35.47671 5.2384 2.58215 -37.9209 -6.52916 3.00482 2.19033
